<?xml version="1.0" encoding="utf-8"?>
<svg version="1.1" id="logo_x5F_erettsegizo_x5F_2022"
	 xmlns="http://www.w3.org/2000/svg" xmlns:xlink="http://www.w3.org/1999/xlink" x="0px" y="0px" viewBox="0 0 300.8 184.8"
	 style="enable-background:new 0 0 300.8 184.8;" xml:space="preserve" fill="white">
<g id="logo">
	<g id="felirat">
		<polygon points="6.4,175.5 17.2,175.5 17.2,169.7 6.4,169.7 6.4,166.7 18.1,166.7 18.1,161 0,161 0,184.4 18.2,184.4 18.2,178.7 
			6.4,178.7"/>
		<polygon points="52.4,175.5 63.1,175.5 63.1,169.7 52.4,169.7 52.4,166.7 64.1,166.7 64.1,161 45.9,161 45.9,184.4 64.1,184.4 
			64.1,178.7 52.4,178.7"/>
		<polygon points="66.7,166.7 73.2,166.7 73.2,184.4 79.6,184.4 79.6,166.7 86.1,166.7 86.1,161 66.7,161 		"/>
		<polygon points="88.8,166.7 95.3,166.7 95.3,184.4 101.7,184.4 101.7,166.7 108.2,166.7 108.2,161 88.8,161 		"/>
		<path d="M122.4,170.1l-2-0.3c-2.5-0.3-3.6-0.8-3.6-2c0-1.1,1-1.7,2.9-1.7c1.9,0,3,0.7,3.2,1.8h6.2c-0.3-4.3-3.4-7.4-9.6-7.4
			c-6.2,0-9.3,3.1-9.3,7.3c0,3.6,2.1,6.4,7.5,7.1l2,0.3c2.7,0.4,3.6,1,3.6,2.2c0,1.1-1.1,1.7-3.2,1.7c-2.5,0-3.5-0.8-3.7-2h-6.3
			c0.3,4.7,3.7,7.6,9.9,7.6c6.1,0,9.8-2.7,9.8-7.7C129.9,173.3,127.8,170.9,122.4,170.1z"/>
		<polygon points="139.9,175.5 150.6,175.5 150.6,169.7 139.9,169.7 139.9,166.7 151.6,166.7 151.6,161 133.5,161 133.5,184.4 
			151.7,184.4 151.7,178.7 139.9,178.7"/>
		<path d="M167.1,170.9v4.7h5.9c-0.3,2.1-2.3,3.3-5.2,3.3c-3.7,0-6.3-2.5-6.3-6.3c0-3.6,2.3-6.1,6.1-6.1c2.3,0,3.9,1.1,4.3,2.4h6.9
			c-1.1-5.2-5.9-8.5-11.5-8.5c-7,0-12.4,5.3-12.4,12.1c0,6.8,5.5,12.1,12.5,12.1c5.8,0,11.9-3.3,11.9-11.3c0-0.6-0.1-1.9-0.3-2.6
			H167.1z"/>
		<rect x="183.5" y="161" width="6.4" height="23.4"/>
		<polygon points="213,165.6 213,161 193.5,161 193.5,166.7 204.1,166.7 193.5,179.8 193.5,184.4 213.1,184.4 213.1,178.7 
			202.5,178.7"/>
		<path d="M247,177.6c-2.1,0-3.5,1.5-3.5,3.5s1.5,3.5,3.5,3.5s3.5-1.5,3.5-3.5S249,177.6,247,177.6z"/>
		<polygon points="269.2,169.6 260.6,169.6 260.6,161 254.2,161 254.2,184.4 260.6,184.4 260.6,175.6 269.2,175.6 269.2,184.4 
			275.7,184.4 275.7,161 269.2,161 		"/>
		<path d="M294.4,161v13.2c0,3.4-1.4,4.5-4.1,4.5c-2.7,0-4.1-1.1-4.1-4.5V161h-6.5v13.9c0,7,4.8,9.9,10.5,9.9
			c5.8,0,10.5-2.9,10.5-9.9V161H294.4z"/>
		<g>
			<path d="M227.8,160.6c-7,0-12.5,5.3-12.5,12.1c0,6.8,5.5,12.1,12.5,12.1c7,0,12.5-5.3,12.5-12.1
				C240.3,165.9,234.8,160.6,227.8,160.6z M227.8,178.7c-3.2,0-5.9-2.5-5.9-6c0-3.5,2.6-6,5.9-6c3.2,0,5.9,2.5,5.9,6
				C233.7,176.2,231,178.7,227.8,178.7z"/>
		</g>
		<g>
			<path d="M37,176.9c3.6-1.2,5.4-4.1,5.4-7.6c0-4.7-2.9-8.3-9.3-8.3H22.1v23.4h6.4v-6.9h1.9l5.2,6.9h7.1L37,176.9z M32.6,172h-4.1
				v-5.3h4.1c2,0,3.1,0.9,3.1,2.6S34.7,172,32.6,172z"/>
		</g>
	</g>
	<g id="ikon">
		<path d="M208.2,66.9l7.8-36.5l-10.3-2.2V17.7h-19.4L178.4,0l-34.1,15.2l-36.5-7.8l-2.2,10.3H95.1v19.4L77.4,45l15.2,34.1
			l-7.8,36.5l10.3,2.2v10.5h19.4l7.9,17.7l34.1-15.2l36.5,7.8l2.2-10.3h10.5v-19.4l17.7-7.9L208.2,66.9z M200.1,23.3v25.4
			l-11.3-25.4H200.1z M100.7,23.3h25.4l-25.4,11.3V23.3z M100.7,122.7V97.3l11.3,25.5H100.7z M200.1,122.7h-25.5l25.5-11.3V122.7z
			 M125.2,138.7L84.8,47.8l90.9-40.5l40.4,90.9L125.2,138.7z"/>
		<rect x="108.2" y="43.5" transform="matrix(0.9135 -0.4068 0.4068 0.9135 -7.86 61.0732)" width="63" height="11.1"/>
		<rect x="119.5" y="70.2" transform="matrix(0.9135 -0.4067 0.4067 0.9135 -18.3343 65.2274)" width="49.6" height="11.1"/>
		<rect x="129.6" y="91.4" transform="matrix(0.9135 -0.4068 0.4068 0.9135 -25.5265 73.9091)" width="63" height="11.1"/>
	</g>
</g>
</svg>
