<svg width="146" height="146" viewBox="0 0 146 146" fill="none" xmlns="http://www.w3.org/2000/svg">
<path d="M130.8 66.9L138.6 30.4L128.3 28.2V17.7H108.9L101 0L66.9 15.2L30.4 7.4L28.2 17.7H17.7V37.1L0 45L15.2 79.1L7.4 115.6L17.7 117.8V128.3H37.1L45 146L79.1 130.8L115.6 138.6L117.8 128.3H128.3V108.9L146 101L130.8 66.9ZM122.7 23.3V48.7L111.4 23.3H122.7ZM23.3 23.3H48.7L23.3 34.6V23.3ZM23.3 122.7V97.3L34.6 122.8H23.3V122.7ZM122.7 122.7H97.2L122.7 111.4V122.7ZM47.8 138.7L7.4 47.8L98.3 7.3L138.7 98.2L47.8 138.7Z" fill="white"/>
<path d="M88.8269 31.1665L31.2764 56.7949L35.7918 66.9348L93.3423 41.3064L88.8269 31.1665Z" fill="white"/>
<path d="M87.2891 60.5826L41.9795 80.7549L46.4939 90.8947L91.8035 70.7224L87.2891 60.5826Z" fill="white"/>
<path d="M110.195 79.0532L52.6445 104.682L57.16 114.821L114.711 89.1931L110.195 79.0532Z" fill="white"/>
</svg>
